<svg width="32" height="32" viewBox="0 0 40 40" fill="none" xmlns="http://www.w3.org/2000/svg">
  <circle cx="20" cy="20" r="18" stroke="#1DD9D0" stroke-width="2.2" fill="none"/>
  <rect x="8"  y="11" width="3" height="3" fill="#1AA89F"/>
  <rect x="11" y="11" width="3" height="3" fill="#1AA89F"/>
  <rect x="14" y="11" width="3" height="3" fill="#1AA89F"/>
  <rect x="17" y="11" width="3" height="3" fill="#1AA89F"/>
  <rect x="20" y="11" width="3" height="3" fill="#1AA89F"/>
  <rect x="23" y="11" width="3" height="3" fill="#1AA89F"/>
  <rect x="26" y="11" width="3" height="3" fill="#1AA89F"/>
  <rect x="8"  y="14" width="3" height="3" fill="#1AA89F"/>
  <rect x="11" y="14" width="3" height="3" fill="#1AA89F"/>
  <rect x="14" y="14" width="3" height="3" fill="#1AA89F"/>
  <rect x="17" y="14" width="3" height="3" fill="#1AA89F"/>
  <rect x="20" y="14" width="3" height="3" fill="#1AA89F"/>
  <rect x="23" y="14" width="3" height="3" fill="#1AA89F"/>
  <rect x="26" y="14" width="3" height="3" fill="#1AA89F"/>
  <rect x="17" y="17" width="3" height="3" fill="#1AA89F"/>
  <rect x="20" y="17" width="3" height="3" fill="#1AA89F"/>
  <rect x="17" y="20" width="3" height="3" fill="#1AA89F"/>
  <rect x="20" y="20" width="3" height="3" fill="#1AA89F"/>
  <rect x="17" y="23" width="3" height="3" fill="#1AA89F"/>
  <rect x="20" y="23" width="3" height="3" fill="#1AA89F"/>
  <rect x="17" y="26" width="3" height="3" fill="#1AA89F"/>
  <rect x="20" y="26" width="3" height="3" fill="#1AA89F"/>
</svg>
