<svg width="32" height="32" viewBox="0 0 22 22" fill="none" xmlns="http://www.w3.org/2000/svg" shape-rendering="crispEdges">
  <!-- Ring outer band — bright teal -->
  <path
    fill-rule="evenodd"
    d="M9,2H14V3H16V4H17V5H18V6H19V7H20V9H21V14H20V16H19V17H18V18H17V19H16V20H14V21H9V20H7V19H6V18H5V17H4V16H3V14H2V9H3V7H4V6H5V5H6V4H7V3H9Z M9,3H14V4H16V5H17V6H18V7H19V9H20V14H19V16H18V17H17V18H16V19H14V20H9V19H7V18H6V17H5V16H4V14H3V9H4V7H5V6H6V5H7V4H9Z"
    fill="#1DD9D0"
  />
  <!-- Ring inner band — darker teal for depth -->
  <path
    fill-rule="evenodd"
    d="M9,3H14V4H16V5H17V6H18V7H19V9H20V14H19V16H18V17H17V18H16V19H14V20H9V19H7V18H6V17H5V16H4V14H3V9H4V7H5V6H6V5H7V4H9Z M9,4H14V5H16V6H17V7H18V9H19V14H18V16H17V17H16V18H14V19H9V18H7V17H6V16H5V14H4V9H5V7H6V6H7V5H9Z"
    fill="#158A82"
  />
  <!-- T letter — bar highlight -->
  <rect x="6" y="8" width="11" height="1" fill="#25D4CB"/>
  <!-- T letter — bar main -->
  <rect x="6" y="9" width="11" height="1" fill="#1AA89F"/>
  <!-- Under-bar overhang shadow -->
  <rect x="6" y="10" width="4" height="1" fill="#0A4A45"/>
  <rect x="13" y="10" width="4" height="1" fill="#0A4A45"/>
  <!-- Stem left highlight -->
  <rect x="10" y="10" width="1" height="7" fill="#1DD9D0"/>
  <!-- Stem main -->
  <rect x="11" y="10" width="1" height="7" fill="#1AA89F"/>
  <!-- Stem right shadow -->
  <rect x="12" y="10" width="1" height="7" fill="#127A73"/>
  <!-- Stem bottom shadow -->
  <rect x="10" y="17" width="3" height="1" fill="#0A4A45"/>
</svg>
